<svg id="wave" style="transform:rotate(0deg); transition: 0.3s" viewBox="0 0 1440 490" version="1.1" xmlns="http://www.w3.org/2000/svg"><defs><linearGradient id="sw-gradient-0" x1="0" x2="0" y1="1" y2="0"><stop stop-color="rgba(30, 120, 200, 1)" offset="0%"></stop><stop stop-color="rgba(34, 130, 214, 1)" offset="100%"></stop></linearGradient></defs><path style="transform:translate(0, 0px); opacity:1" fill="url(#sw-gradient-0)" d="M0,441L240,400.2C480,359,960,278,1440,253.2C1920,229,2400,261,2880,277.7C3360,294,3840,294,4320,245C4800,196,5280,98,5760,106.2C6240,114,6720,229,7200,253.2C7680,278,8160,212,8640,204.2C9120,196,9600,245,10080,245C10560,245,11040,196,11520,171.5C12000,147,12480,147,12960,147C13440,147,13920,147,14400,179.7C14880,212,15360,278,15840,285.8C16320,294,16800,245,17280,253.2C17760,261,18240,327,18720,294C19200,261,19680,131,20160,106.2C20640,82,21120,163,21600,220.5C22080,278,22560,310,23040,326.7C23520,343,24000,343,24480,351.2C24960,359,25440,376,25920,318.5C26400,261,26880,131,27360,122.5C27840,114,28320,229,28800,277.7C29280,327,29760,310,30240,277.7C30720,245,31200,196,31680,155.2C32160,114,32640,82,33120,106.2C33600,131,34080,212,34320,253.2L34560,294L34560,490L34320,490C34080,490,33600,490,33120,490C32640,490,32160,490,31680,490C31200,490,30720,490,30240,490C29760,490,29280,490,28800,490C28320,490,27840,490,27360,490C26880,490,26400,490,25920,490C25440,490,24960,490,24480,490C24000,490,23520,490,23040,490C22560,490,22080,490,21600,490C21120,490,20640,490,20160,490C19680,490,19200,490,18720,490C18240,490,17760,490,17280,490C16800,490,16320,490,15840,490C15360,490,14880,490,14400,490C13920,490,13440,490,12960,490C12480,490,12000,490,11520,490C11040,490,10560,490,10080,490C9600,490,9120,490,8640,490C8160,490,7680,490,7200,490C6720,490,6240,490,5760,490C5280,490,4800,490,4320,490C3840,490,3360,490,2880,490C2400,490,1920,490,1440,490C960,490,480,490,240,490L0,490Z"></path><defs><linearGradient id="sw-gradient-1" x1="0" x2="0" y1="1" y2="0"><stop stop-color="rgba(34, 130, 214, 1)" offset="0%"></stop><stop stop-color="rgba(30, 120, 200, 1)" offset="100%"></stop></linearGradient></defs><path style="transform:translate(0, 50px); opacity:0.9" fill="url(#sw-gradient-1)" d="M0,245L240,236.8C480,229,960,212,1440,187.8C1920,163,2400,131,2880,171.5C3360,212,3840,327,4320,318.5C4800,310,5280,180,5760,130.7C6240,82,6720,114,7200,171.5C7680,229,8160,310,8640,285.8C9120,261,9600,131,10080,122.5C10560,114,11040,229,11520,294C12000,359,12480,376,12960,318.5C13440,261,13920,131,14400,98C14880,65,15360,131,15840,155.2C16320,180,16800,163,17280,187.8C17760,212,18240,278,18720,310.3C19200,343,19680,343,20160,351.2C20640,359,21120,376,21600,351.2C22080,327,22560,261,23040,220.5C23520,180,24000,163,24480,147C24960,131,25440,114,25920,138.8C26400,163,26880,229,27360,269.5C27840,310,28320,327,28800,334.8C29280,343,29760,343,30240,285.8C30720,229,31200,114,31680,98C32160,82,32640,163,33120,236.8C33600,310,34080,376,34320,408.3L34560,441L34560,490L34320,490C34080,490,33600,490,33120,490C32640,490,32160,490,31680,490C31200,490,30720,490,30240,490C29760,490,29280,490,28800,490C28320,490,27840,490,27360,490C26880,490,26400,490,25920,490C25440,490,24960,490,24480,490C24000,490,23520,490,23040,490C22560,490,22080,490,21600,490C21120,490,20640,490,20160,490C19680,490,19200,490,18720,490C18240,490,17760,490,17280,490C16800,490,16320,490,15840,490C15360,490,14880,490,14400,490C13920,490,13440,490,12960,490C12480,490,12000,490,11520,490C11040,490,10560,490,10080,490C9600,490,9120,490,8640,490C8160,490,7680,490,7200,490C6720,490,6240,490,5760,490C5280,490,4800,490,4320,490C3840,490,3360,490,2880,490C2400,490,1920,490,1440,490C960,490,480,490,240,490L0,490Z"></path><defs><linearGradient id="sw-gradient-2" x1="0" x2="0" y1="1" y2="0"><stop stop-color="rgba(34, 130, 214, 1)" offset="0%"></stop><stop stop-color="rgba(30, 120, 200, 1)" offset="100%"></stop></linearGradient></defs><path style="transform:translate(0, 100px); opacity:0.8" fill="url(#sw-gradient-2)" d="M0,98L240,155.2C480,212,960,327,1440,310.3C1920,294,2400,147,2880,138.8C3360,131,3840,261,4320,302.2C4800,343,5280,294,5760,261.3C6240,229,6720,212,7200,204.2C7680,196,8160,196,8640,163.3C9120,131,9600,65,10080,106.2C10560,147,11040,294,11520,351.2C12000,408,12480,376,12960,326.7C13440,278,13920,212,14400,179.7C14880,147,15360,147,15840,122.5C16320,98,16800,49,17280,81.7C17760,114,18240,229,18720,261.3C19200,294,19680,245,20160,187.8C20640,131,21120,65,21600,49C22080,33,22560,65,23040,89.8C23520,114,24000,131,24480,187.8C24960,245,25440,343,25920,318.5C26400,294,26880,147,27360,138.8C27840,131,28320,261,28800,294C29280,327,29760,261,30240,196C30720,131,31200,65,31680,32.7C32160,0,32640,0,33120,0C33600,0,34080,0,34320,0L34560,0L34560,490L34320,490C34080,490,33600,490,33120,490C32640,490,32160,490,31680,490C31200,490,30720,490,30240,490C29760,490,29280,490,28800,490C28320,490,27840,490,27360,490C26880,490,26400,490,25920,490C25440,490,24960,490,24480,490C24000,490,23520,490,23040,490C22560,490,22080,490,21600,490C21120,490,20640,490,20160,490C19680,490,19200,490,18720,490C18240,490,17760,490,17280,490C16800,490,16320,490,15840,490C15360,490,14880,490,14400,490C13920,490,13440,490,12960,490C12480,490,12000,490,11520,490C11040,490,10560,490,10080,490C9600,490,9120,490,8640,490C8160,490,7680,490,7200,490C6720,490,6240,490,5760,490C5280,490,4800,490,4320,490C3840,490,3360,490,2880,490C2400,490,1920,490,1440,490C960,490,480,490,240,490L0,490Z"></path></svg>